<svg id="Layer_1" data-name="Layer 1" xmlns="http://www.w3.org/2000/svg" viewBox="0 0 398.07 107.53"><defs><style>.cls-1{fill:#ee712a;}.cls-2{fill:#fab400;}</style></defs><title>NIX18_cmyk</title><path class="cls-1" d="M339,228.1c-8.47,0-15.11,5.59-15.11,12.73v81.84c0,7.13,6.64,12.72,15.11,12.72s15.3-5.71,15.3-12.72V240.83C354.28,233.81,347.42,228.1,339,228.1Z" transform="translate(-221.91 -228.1)"/><path class="cls-1" d="M290.81,228.76c-8.45,0-15.07,5.57-15.07,12.68v31.69l-25.82-38.29-.16-.21a6,6,0,0,0-.45-.58A13.85,13.85,0,0,0,238,228.8h-.44l-.19,0a2.22,2.22,0,0,0-.37,0c-8.44,0-15.06,5.57-15.06,12.68V323c0,7.1,6.62,12.67,15.06,12.67S252.2,330,252.2,323V291.09l24.55,36.38a12.78,12.78,0,0,0,3.91,4.88A14.4,14.4,0,0,0,290,335.6h.52l.31,0c8.41,0,15.25-5.68,15.25-12.67V241.44C306.06,234.45,299.22,228.76,290.81,228.76Z" transform="translate(-221.91 -228.1)"/><path class="cls-2" d="M510.28,229.34a19.23,19.23,0,0,0-6.81,1.24L485.63,237c-7.71,2.75-11.28,11.87-8.12,20.78,2.5,7,8.78,11.85,15.26,11.85h.66v50.58c0,8.2,7.4,14.62,16.85,14.62s17-6.56,17-14.62V244C527.29,235.9,519.66,229.34,510.28,229.34Zm0,98.56c-5.58,0-9.94-3.39-9.94-7.71v-59.9l-5.67,2.09a5.52,5.52,0,0,1-1.87.31c-3.58,0-7.28-3-8.78-7.23-1.86-5.26-.13-10.51,3.94-12l17.9-6.44a12.79,12.79,0,0,1,4.42-.81c5.57,0,10.1,3.46,10.1,7.71v76.23C520.38,324.44,515.85,327.9,510.28,327.9Z" transform="translate(-221.91 -228.1)"/><path class="cls-2" d="M609.6,275.78a28.33,28.33,0,0,0,5.06-16c0-16.77-14.75-30.41-32.89-30.41S548.88,243,548.88,259.75a28.48,28.48,0,0,0,5,16,34,34,0,0,0-10.38,24c0,19.46,17.15,35.3,38.22,35.3S620,319.25,620,299.79A34,34,0,0,0,609.6,275.78Zm-27.83,52.4c-17.27,0-31.31-12.74-31.31-28.39a27.36,27.36,0,0,1,10.34-20.91l2.7-2.22L561.24,274a22,22,0,0,1-5.45-14.24c0-13,11.65-23.5,26-23.5s26,10.54,26,23.5A21.92,21.92,0,0,1,602.29,274L600,276.67l2.7,2.21c6.66,5.51,10.33,12.93,10.33,20.91C613.07,315.44,599,328.18,581.77,328.18Z" transform="translate(-221.91 -228.1)"/><path class="cls-1" d="M405.13,290.35a11,11,0,0,1-3.74-7.62c-.09-2.35.59-5.78,4.34-8.91l7.94-8.31,5.3-5.71-21.78-23.29c-3.46-4.23-7.56-6.47-11.84-6.47-3.73,0-7.51,1.65-11.27,4.93-7.6,7.79-4.89,16.07.17,21.21l24.45,26.3-24.58,26.65c-3.72,4.16-7.73,13.35.87,21.41a14.08,14.08,0,0,0,9.63,3.94c6.52,0,11.42-4.65,12.35-5.59l21.91-23.68Z" transform="translate(-221.91 -228.1)"/><path class="cls-2" d="M465.11,234.35l-.09-.09c-3.69-3.2-7.68-4.9-11.56-4.9-4.55,0-8.82,2.27-12.33,6.55l-27.46,29.6-7.94,8.31c-3.75,3.13-4.43,6.56-4.34,8.91a11,11,0,0,0,3.74,7.62l36.2,39.11c.94,1,6,5.76,12.83,5.76a14.78,14.78,0,0,0,10.15-4.17c9-8.42,4.79-18.07.86-22.46l-24.09-26.11L465,256.76C470.34,251.34,473.18,242.61,465.11,234.35ZM433,282.46l27.77,30.11c3.23,3.59,4.8,9.2-.48,14.12a9,9,0,0,1-6.14,2.61,13.14,13.14,0,0,1-8.54-3.91l-36.36-39.28-.13-.12a5.05,5.05,0,0,1-1.82-3.5c-.05-.95.16-2.42,2.43-4.33l35.84-38.34.06-.07c2.46-3,5.1-4.51,7.86-4.51,2.38,0,4.89,1.12,7.48,3.34,4.35,4.5,4.27,9.49-.26,14.1Z" transform="translate(-221.91 -228.1)"/></svg>